<svg width="541" height="541" xmlns="http://www.w3.org/2000/svg" xmlns:xlink="http://www.w3.org/1999/xlink" xml:space="preserve" overflow="hidden"><g transform="translate(-1210 -692)"><path d="M1233 797.502C1233 751.937 1269.94 715 1315.5 715L1645.5 715C1691.06 715 1728 751.937 1728 797.502L1728 1127.5C1728 1173.06 1691.06 1210 1645.5 1210L1315.5 1210C1269.94 1210 1233 1173.06 1233 1127.5Z" stroke="#FFFFFF" stroke-width="45.8333" stroke-miterlimit="8" fill="none" fill-rule="evenodd"/><g><g><g><path d="M1690.39 904.853 1664.77 895.492 1664.77 841.786 1690.39 830.947 1516.96 766.895 1306.08 840.801C1285.88 850.655 1285.39 877.754 1285.39 899.926 1285.39 907.317 1286.37 914.707 1287.85 921.605 1271.1 932.445 1270.61 957.573 1270.61 978.759 1270.61 996.004 1274.55 1011.77 1285.39 1021.62 1282.92 1030 1284.4 1040.35 1284.4 1052.67 1284.4 1074.84 1290.31 1095.04 1310.02 1101.94L1447 1158.6 1689.41 1058.09 1663.79 1048.72 1663.79 994.526 1689.41 983.686 1649.99 968.905 1649.99 921.605 1690.39 904.853ZM1311.99 875.291 1448.97 928.996 1645.56 849.67 1645.56 892.043 1448.97 973.832 1311.99 919.634 1311.99 875.291ZM1644.57 1045.28 1447.98 1126.57 1310.52 1072.37 1310.52 1033.94 1433.2 1084.2 1645.06 1000.44 1644.57 1045.28ZM1630.78 971.369 1434.19 1052.67 1297.21 998.468 1297.21 954.124 1438.13 1010.29 1631.27 929.489 1631.27 971.369Z" fill="#FFFFFF"/></g></g></g></g></svg>